<?xml version="1.0" encoding="utf-8"?>
<!-- Generator: Adobe Illustrator 26.0.0, SVG Export Plug-In . SVG Version: 6.00 Build 0)  -->
<svg version="1.1" id="Layer_1" xmlns="http://www.w3.org/2000/svg" xmlns:xlink="http://www.w3.org/1999/xlink" x="0px" y="0px"
	 viewBox="0 0 580.97 285.87" style="enable-background:new 0 0 580.97 285.87;" xml:space="preserve">
<style type="text/css">
	.st0{fill:#30B44A;}
	.st1{fill:#5A4102;}
	.st2{fill-rule:evenodd;clip-rule:evenodd;fill:#FFFFFF;}
	.st3{fill-rule:evenodd;clip-rule:evenodd;}
</style>
<path class="st0" d="M447.6,54.46c14.26-3.23,24.56,3.9,30.54,20.97l-49.8,11.29C426.87,68.64,433.34,57.7,447.6,54.46
	 M520.5,107.92l-24.53,5.56c-4.5,1.02-7.92,3.37-10.18,7.31c-5.09,7.73-11.61,12.63-19.36,14.39c-16.27,3.69-27.35-4.59-33.2-24.57
	l85.59-19.41c-9.24-52.37-34.86-73.66-76.9-64.13c-40.23,9.39-55.4,36.51-45.18,81.55c10.21,45.05,35.51,63.78,75.83,55.95
	C505.1,157.2,519.6,137.6,520.5,107.92z"/>
<path class="st1" d="M541.71,11.13H524v174.5h34.13V27.81C558.13,18.83,550.69,11.13,541.71,11.13"/>
<path class="st1" d="M91.35,106.95v173.06h33.87V97.72c0-29.53-7.92-47.84-26.94-54.66c-25.36-9.09-46.7-3.34-64.15,16.68V19.19
	C34.13,7.9,28.48,2,17.19,2H0v174.5h34.13v-69.54c0-20.79,8.73-37.72,29-37.72C82.63,69.23,91.35,84.12,91.35,106.95"/>
<path class="st1" d="M198.36,66.67c14.11,0,21.3,3.85,22.07,11.55c0,7.44-7.44,11.8-22.07,13.6c-34.38,3.34-57.99,12.06-58.76,44.65
	c0,30.02,22.58,45.16,55.17,42.6c36.69-2.57,59.28-19.25,59.28-56.71V76.16c-0.77-25.15-19.76-37.46-57.22-37.46
	c-31.31,0-49.01,12.32-53.12,37.46h34.13C179.63,69.75,186.3,66.67,198.36,66.67 M190.4,151.35c-10.78,0-16.42-5.13-17.19-15.91
	c0-10.01,6.93-16.42,20.53-18.99c10.01-2.05,19.25-4.88,27.2-8.21v12.57C220.94,140.06,209.4,151.35,190.4,151.35z"/>
<path class="st1" d="M292.02,69.23h51.07l-72.62,80.32v26.94h117.27v-29.51h-74.16l72.11-77.24v-29H274.57v11.03
	C274.57,61.79,282.01,69.23,292.02,69.23"/>
<path d="M381.46,273.56h11.81v-20.74h2.61c1.49,0,3.44,0.09,4.37,1.77l7.9,14.88c1.86,3.44,3.44,4.09,7.44,4.09h8.74v-9.95h-3.16
	c-2.23,0-3.16-0.37-3.91-1.77l-5.39-10.23c-1.67-3.07-3.35-3.72-3.35-3.72v-0.19c0,0,1.49-0.74,3.53-3.72l12-17.85h-13.11
	l-9.67,14.97c-1.02,1.49-2.98,1.77-4.46,1.77h-3.53v-29.94c0-4.37-1.95-5.39-6.32-5.39h-11.25v10.04h3.72c1.3,0,2.05,0.65,2.05,2.05
	V273.56z M348.27,267.24c0,4.46,1.86,6.32,6.32,6.32h11.16v-9.95h-3.62c-1.3,0-2.05-0.74-2.05-2.05v-29.1
	c0-4.37-1.95-6.33-6.33-6.33h-11.25v10.04h3.72c1.3,0,2.05,0.65,2.05,2.05V267.24z M303,264.73c-6.97,0-11.72-5.86-11.72-14.88
	c0-9.39,5.39-14.69,11.9-14.69c7.9,0,11.72,7.26,11.72,14.6C314.9,260.26,309.13,264.73,303,264.73z M279.28,249.85
	c0,14.69,8.28,24.83,21.11,24.83c10.88,0,14.78-7.72,14.78-7.72h0.18c0,0,0,0.74,0,1.77c0,2.79,1.58,4.83,5.86,4.83h10.88v-9.95
	h-3.62c-1.3,0-2.05-0.74-2.05-2.05v-47.7c0-4.37-1.96-6.32-6.33-6.32h-11.25v10.04h3.72c1.3,0,2.05,0.65,2.05,2.05V228
	c0,1.58,0.09,2.79,0.09,2.79h-0.19c0,0-3.35-5.76-13.67-5.76C288.3,225.02,279.28,234.79,279.28,249.85z M218.29,273.56h11.72V251.8
	c0-2.23,0.28-4.37,0.93-6.32c1.68-5.67,6.42-9.67,12.74-9.67c5.95,0,7.44,3.91,7.44,9.67v21.76c0,4.46,1.86,6.32,6.33,6.32h11.25
	v-9.95h-3.72c-1.3,0-2.05-0.74-2.05-2.05v-18.51c0-12.55-6.04-18.04-16.55-18.04c-9.58,0-14.69,5.86-16.74,9.86h-0.19
	c0,0,0.19-1.02,0.19-2.05v-1.39c0-3.35-2.05-5.3-6.23-5.3h-10.88v10.04h3.72c1.3,0,2.05,0.65,2.05,2.05V273.56z M184.73,267.24
	c0,4.46,1.86,6.32,6.32,6.32h11.16v-9.95h-3.62c-1.3,0-2.05-0.74-2.05-2.05v-29.1c0-4.37-1.95-6.33-6.33-6.33h-11.25v10.04h3.72
	c1.3,0,2.05,0.65,2.05,2.05V267.24z M146.25,273.56h11.81v-38.03h10.14v-9.39h-10.14v-1.1c0-6.85,5.77-7.69,9.11-7.69
	c1.39,0,2.42,0.18,2.42,0.18v-10.09c0,0.09-1.58-0.18-4-0.18c-6.6,0-19.34,2.05-19.34,17.5v1.38h-5.86v9.39h5.86V273.56z"/>
<path class="st2" d="M449.7,139.55c30.54-10.46,68.71,5.58,92.26,25.11c1.73,1.44,2.24,3.83,1.36,5.8c1.88,0.31,3.5,1.7,4,3.66
	l0.86,3.36c6.89,29.91-4.83,63.59-28.17,83.25c-19.93,16.8-22.55,12.17-45.2,15.48c-10.39,1.52-20.01,7.62-25.96-6.42
	c-0.29-0.67-0.41-1.37-0.39-2.06c-0.12-0.09-0.23-0.19-0.34-0.3c-13.3-12.69-23.6-28.93-28.75-46.62
	c-8.93-30.64,3.21-58.99,25.71-80.08C446.35,139.52,448.11,139.14,449.7,139.55"/>
<g>
	<path class="st3" d="M451.16,146.29c17.36,18.98,35.26,3.82,54.81,13.41c13.07,6.41,22.01,16.65,37.68,12.13
		c-17.13,6.01-28.21-6.76-43.88-11.6l-3.02-0.56C479.03,156.61,464.48,162.56,451.16,146.29"/>
	<path class="st3" d="M453.23,144.38c29-10.84,66.35,5.11,88.84,23.76c-10.06-7.35-21.19-12.69-32.6-16.86
		C491.88,144.86,472.41,138.47,453.23,144.38"/>
	<path class="st3" d="M451.73,144.01c-19.83,21.79-26.43,44.01-20.35,73.2c3.73,17.89,12.74,33.95,23.42,46.32
		c-11.94-11.39-22.26-26.71-27.43-44.43C418.86,189.88,430.93,163.5,451.73,144.01"/>
	<path class="st3" d="M456.68,267.53c4.69,9.92,11.58,4.08,20.65,2.28c21.74-4.3,24.03,0.63,43.63-18.17
		c21.43-20.56,31.36-46.22,24.85-76.63l0.84,3.31c6.59,28.62-5.1,60.24-26.55,78.31c-19.16,16.15-22.42,11.4-42.73,14.37
		C468.27,272.33,461.05,277.86,456.68,267.53"/>
	<path class="st3" d="M532.81,179.63c-1.72,40.7-20.8,63.55-49.54,82.85C509.8,242.8,529.72,217.6,532.81,179.63"/>
	<path class="st3" d="M503.92,169.19c-6.15,23.55-11.22,40.79-20.84,63.11c-2.8,6.51-5.69,12.75-8.72,19.12
		c3.44-8.19,6.65-16.18,9.71-24.55C490.99,207.98,497.95,188.42,503.92,169.19"/>
	<path class="st3" d="M480.44,164.14c-8.91,26.24-15.6,56.59-20.77,83.9C464.48,214.21,467.81,196.37,480.44,164.14"/>
	<path class="st3" d="M463.11,163.13c-13.31,21.08-16.46,46.54-13.44,70.65c1.02,8.11,2.49,14,4.71,21.55
		C443.76,224.56,442.98,192.17,463.11,163.13"/>
</g>
</svg>
